<svg xmlns="http://www.w3.org/2000/svg" width="700" height="417" viewBox="0 0 700 417">
  <defs>
    <linearGradient id="headerLine" x1="0%" y1="0%" x2="100%" y2="0%">
      <stop offset="0%" style="stop-color:#3d5a8a;stop-opacity:0"/>
      <stop offset="50%" style="stop-color:#5a7ab0;stop-opacity:0.4"/>
      <stop offset="100%" style="stop-color:#3d5a8a;stop-opacity:0"/>
    </linearGradient>
  </defs>

  <!-- Header -->
  <text x="28" y="30" font-family="'Fira Code', 'Cascadia Code', monospace" font-size="11" fill="#4a6080" letter-spacing="4">TRACKLIST</text>
  <text x="672" y="30" font-family="'Fira Code', monospace" font-size="10" fill="#2a3a5c" text-anchor="end">06 tracks</text>

  <!-- Header underline -->
  <rect x="0" y="42" width="700" height="1" fill="url(#headerLine)"/>

  <!-- Track rows -->
  <rect x="0" y="65" width="700" height="52" fill="#3d5a8a" opacity="0.04"/>
  <rect x="0" y="65" width="3" height="52" fill="#5a7ab0" opacity="0.5" rx="1"/>
  <text x="28" y="97" font-family="'Fira Code', 'Cascadia Code', monospace" font-size="13" fill="#5a7ab0" opacity="0.45" text-anchor="middle">01</text>
  <text x="55" y="95" font-family="'Segoe UI', 'SF Pro Display', -apple-system, sans-serif" font-size="15" font-weight="600" fill="#d0d8e8">Perfect Match</text>
  <line x1="182" y1="92" x2="430" y2="92" stroke="#2a3a5c" stroke-width="1" stroke-dasharray="2,6" opacity="0.5"/>
  <text x="440" y="95" font-family="'Segoe UI', sans-serif" font-size="12" fill="#6078a0" opacity="0.7">matchmaking for Cornell students</text>
  <line x1="20" y1="117" x2="680" y2="117" stroke="#2a3a5c" stroke-opacity="0.15" stroke-width="1"/>
  <rect x="0" y="117" width="3" height="52" fill="#5a7ab0" opacity="0.5" rx="1"/>
  <text x="28" y="149" font-family="'Fira Code', 'Cascadia Code', monospace" font-size="13" fill="#5a7ab0" opacity="0.45" text-anchor="middle">02</text>
  <text x="55" y="147" font-family="'Segoe UI', 'SF Pro Display', -apple-system, sans-serif" font-size="15" font-weight="600" fill="#d0d8e8">EzModel</text>
  <line x1="128" y1="144" x2="430" y2="144" stroke="#2a3a5c" stroke-width="1" stroke-dasharray="2,6" opacity="0.5"/>
  <text x="440" y="147" font-family="'Segoe UI', sans-serif" font-size="12" fill="#6078a0" opacity="0.7">visual DB schema + CRUD API gen</text>
  <line x1="20" y1="169" x2="680" y2="169" stroke="#2a3a5c" stroke-opacity="0.15" stroke-width="1"/>
  <rect x="0" y="169" width="700" height="52" fill="#3d5a8a" opacity="0.04"/>
  <rect x="0" y="169" width="3" height="52" fill="#5a7ab0" opacity="0.5" rx="1"/>
  <text x="28" y="201" font-family="'Fira Code', 'Cascadia Code', monospace" font-size="13" fill="#5a7ab0" opacity="0.45" text-anchor="middle">03</text>
  <text x="55" y="199" font-family="'Segoe UI', 'SF Pro Display', -apple-system, sans-serif" font-size="15" font-weight="600" fill="#d0d8e8">Tabime</text>
  <line x1="119" y1="196" x2="430" y2="196" stroke="#2a3a5c" stroke-width="1" stroke-dasharray="2,6" opacity="0.5"/>
  <text x="440" y="199" font-family="'Segoe UI', sans-serif" font-size="12" fill="#6078a0" opacity="0.7">plan hangouts, effortlessly</text>
  <line x1="20" y1="221" x2="680" y2="221" stroke="#2a3a5c" stroke-opacity="0.15" stroke-width="1"/>
  <rect x="0" y="221" width="3" height="52" fill="#5a7ab0" opacity="0.5" rx="1"/>
  <text x="28" y="253" font-family="'Fira Code', 'Cascadia Code', monospace" font-size="13" fill="#5a7ab0" opacity="0.45" text-anchor="middle">04</text>
  <text x="55" y="251" font-family="'Segoe UI', 'SF Pro Display', -apple-system, sans-serif" font-size="15" font-weight="600" fill="#d0d8e8">CuffedOrNot</text>
  <line x1="164" y1="248" x2="430" y2="248" stroke="#2a3a5c" stroke-width="1" stroke-dasharray="2,6" opacity="0.5"/>
  <text x="440" y="251" font-family="'Segoe UI', sans-serif" font-size="12" fill="#6078a0" opacity="0.7">the relationship quiz</text>
  <line x1="20" y1="273" x2="680" y2="273" stroke="#2a3a5c" stroke-opacity="0.15" stroke-width="1"/>
  <rect x="0" y="273" width="700" height="52" fill="#3d5a8a" opacity="0.04"/>
  <rect x="0" y="273" width="3" height="52" fill="#5a7ab0" opacity="0.5" rx="1"/>
  <text x="28" y="305" font-family="'Fira Code', 'Cascadia Code', monospace" font-size="13" fill="#5a7ab0" opacity="0.45" text-anchor="middle">05</text>
  <text x="55" y="303" font-family="'Segoe UI', 'SF Pro Display', -apple-system, sans-serif" font-size="15" font-weight="600" fill="#d0d8e8">Campus Meal Pick</text>
  <line x1="209" y1="300" x2="430" y2="300" stroke="#2a3a5c" stroke-width="1" stroke-dasharray="2,6" opacity="0.5"/>
  <text x="440" y="303" font-family="'Segoe UI', sans-serif" font-size="12" fill="#6078a0" opacity="0.7">AI-powered eatery suggestions</text>
  <line x1="20" y1="325" x2="680" y2="325" stroke="#2a3a5c" stroke-opacity="0.15" stroke-width="1"/>
  <rect x="0" y="325" width="3" height="52" fill="#c0392b" opacity="0.5" rx="1"/>
  <text x="28" y="357" font-family="'Fira Code', 'Cascadia Code', monospace" font-size="13" fill="#5a7ab0" opacity="0.3" text-anchor="middle">06</text>
  <text x="55" y="355" font-family="'Segoe UI', 'SF Pro Display', -apple-system, sans-serif" font-size="15" font-weight="600" fill="#b0b8c8">Escoffier</text>
  <line x1="146" y1="352" x2="430" y2="352" stroke="#2a3a5c" stroke-width="1" stroke-dasharray="2,6" opacity="0.5"/>
  <text x="440" y="355" font-family="'Fira Code', monospace" font-size="11" fill="#c0392b" opacity="0.7">recording</text>
  <circle cx="510" cy="351" r="4" fill="#c0392b">
    <animate attributeName="opacity" values="0.9;0.2;0.9" dur="1.5s" repeatCount="indefinite"/>
  </circle>

  <!-- Bottom line -->
  <rect x="0" y="407" width="700" height="1" fill="url(#headerLine)" opacity="0.5"/>

</svg>